<?xml version="1.0" encoding="UTF-8"?>
<svg id="Layer_2" data-name="Layer 2" xmlns="http://www.w3.org/2000/svg" viewBox="0 0 203.16 77.32">
  <defs>
    <style>
      /* use currentColor so the SVG can inherit a visible color from CSS */
      .cls-1 {
        fill: currentColor;
        stroke-width: 0px;
      }
    </style>
  </defs>
  <g id="Layer_1-2" data-name="Layer 1">
    <g>
      <g>
        <polygon class="cls-1" points="39.53 54.07 41.98 48.38 9.97 48.38 14.75 52.06 4.08 77.32 29.75 77.32 32.2 71.45 16.23 71.45 18.83 65.31 31.43 65.31 33.73 59.89 21.12 59.89 23.56 54.07 39.53 54.07"/>
        <path class="cls-1" d="m73.64,51.09c-.13-.51-.4-.97-.8-1.38-.41-.41-.97-.73-1.68-.97-.71-.24-1.53-.36-2.45-.36h-15.05c-.92,0-1.83.12-2.75.36-.92.24-1.77.56-2.56.97-.79.41-1.49.87-2.1,1.38-.61.51-1.02,1.04-1.22,1.58l-10.39,24.65h9.86l4.28-10.11h8.71l-4.28,10.11h9.93l10.39-24.65c.2-.54.24-1.07.11-1.58Zm-13.48,10.52h-9.02l3.36-8.04h9.02l-3.36,8.04Z"/>
        <path class="cls-1" d="m89.42,60.07l4.01,3.08-3.7,8.75h-9.24l7.64-18.1h18.87l2.29-5.42h-22.08c-1.83,0-3.53.35-5.08,1.06-1.55.71-2.56,1.6-3.02,2.69l-9.01,21.35c-.46,1.08-.18,1.99.84,2.73,1.02.74,2.44,1.11,4.28,1.11h21.85l7.26-17.25h-14.9Z"/>
        <polygon class="cls-1" points="124.1 48.38 114.63 48.38 102.41 77.32 129.22 77.32 131.59 71.77 114.25 71.77 124.1 48.38"/>
        <polygon class="cls-1" points="160.07 65.31 162.37 59.89 149.76 59.89 152.21 54.07 168.17 54.07 170.62 48.38 144.95 48.38 132.72 77.32 158.39 77.32 160.84 71.45 144.87 71.45 147.47 65.31 160.07 65.31"/>
        <path class="cls-1" d="m202.21,49.44c-.94-.71-2.33-1.06-4.16-1.06h-15.59c-1.83,0-3.57.32-5.19.97-1.63.65-2.7,1.57-3.21,2.78l-1.91,4.6-2.22,5.28c-.2.45-.2.87,0,1.26.2.39.55.74,1.03,1.06.48.32,1.09.56,1.83.74.74.18,1.57.27,2.48.27h12.61l-2.83,6.68h-9.7l1.3-3.12h-9.7l-1.91,4.56c-.46,1.08-.17,1.99.88,2.73,1.04.74,2.48,1.11,4.32,1.11h15.36c.92,0,1.82-.1,2.71-.29.89-.2,1.72-.47,2.48-.81.76-.35,1.41-.75,1.95-1.22.53-.47.93-.97,1.18-1.51l2.14-5.06,1.99-4.6c.46-1.08.2-1.98-.76-2.69-.97-.71-2.37-1.06-4.2-1.06h-12.53l2.75-6.41h9.55l-1.3,2.98h9.47l1.91-4.51c.46-1.08.22-1.98-.73-2.69Z"/>
      </g>
      <path class="cls-1" d="m108,18.64c-1.16-1.71-4.54-6.49-10.75-8,14.14-.86,19.96,4.54,21.13,5.81.72-.32,1.27-.63,1.63-.93-3.73-6.72-20.43-10.73-44.67-10.73h-20.38l40.09,7.37-18.19,3.16,19.39,2.88c4.29.64,8.29.71,11.74.45Z"/>
      <path class="cls-1" d="m147.77,27.53c-1.35-7-9.38-12.05-23.87-15l-.12-.02-.07-.1c-2.56-3.86-7.79-6.88-15.54-8.99-8.35-2.27-19.4-3.42-32.82-3.42H0l63.77,11.18-35.47,1.77,50.21,7.45-33.98,1.69,68.41,10.15c.63.12,1.45.24,2.39.37,4.91.71,15.12,2.18,17.69,7.15,1.02,1.98.77,4.41-.77,7.42l-2.84,5.56,5.25-3.39c.15-.1,15.23-10.82,13.11-21.82Zm-14.02,20.41c7.7-15.07-15.3-16.35-20.52-17.36l-51.67-7.67,33.98-1.69-50.21-7.45,33.46-1.67L19.27,1.68h56.08c27.34,0,43.23,4.84,47.38,12.33,45.5,8.85,11.13,33.86,11.02,33.93Z"/>
      <path class="cls-1" d="m143.04,28.28c-.83-3.75-5.27-6.9-12.97-9.28,0,0-3.45-1.09-7.13-1.79-2.61,3.44-26.66,7.08-29.83,7.24l20.72,3.08c.51.1,1.29.21,2.19.34,5.44.78,15.01,2.17,19.7,7.44-.69-3.73-4.22-7.32-19.12-11.35,25.82,3.52,24.27,11.59,21.67,15.6,2.76-3.16,5.61-7.5,4.78-11.27Zm-21.11-7.88c1.23-.49,1.89-.97,2.24-1.31,11.56,2.84,17.35,6.26,17.35,10.69-1.12-6.11-14.56-8.64-19.59-9.38Z"/>
      <path class="cls-1" d="m103.14,11.88c3.13,1.51,6.72,5.76,7.21,7.12,0,0,4.39-.11,7.16-1.23,0,0-.97-.96-2.74-2.11-.5.06-1.47.31-.15,1.49-5.09.58-5.36-2.68-4.65-3.89-1.96-.72-4.25-1.27-6.83-1.38Z"/>
    </g>
  </g>
</svg>